Coordinates
version=1
nRows=26
nColumns=22
inDegrees=yes

Units are S.I. units (second, meters, Newtons, ...)
If the header above contains a line with 'inDegrees', this indicates whether rotational values are in degrees (yes) or radians (no).

endheader
time	pelvis_tilt	pelvis_list	pelvis_rotation	pelvis_tx	pelvis_ty	pelvis_tz	hip_flexion_r	hip_adduction_r	hip_rotation_r	knee_angle_r	ankle_angle_r	subtalar_angle_r	hip_flexion_l	hip_adduction_l	hip_rotation_l	knee_angle_l	ankle_angle_l	subtalar_angle_l	lumbar_extension	lumbar_bending	lumbar_rotation
      2.62000000	      2.90111205	      4.29033921	    -31.41800059	     -0.18783508	      1.05864900	     -0.35290679	     -1.58463442	     -0.03854247	     11.00228608	    -45.01142275	     -2.89144110	     13.43665199	     16.59315224	      3.75144257	      6.66847232	    -20.65499542	      6.93033807	      4.32743204	     -2.41931853	     -6.85890587	     -1.15729397
      2.63000000	      3.10586596	      4.49650142	    -32.04518449	     -0.17959088	      1.05957461	     -0.34911658	     -0.19374590	     -0.41898883	     10.87201702	    -47.27073734	     -4.22591425	     14.14475704	     15.84830810	      3.96667903	      5.93296092	    -20.40763232	      7.34219503	      4.02212393	     -2.56653729	     -7.16953696	     -1.27381164
      2.64000000	      3.36564534	      4.69308268	    -32.63177819	     -0.17147481	      1.06054682	     -0.34542494	      1.17867866	     -0.85260551	     10.62194747	    -49.41497869	     -5.04691446	     14.39672790	     15.03309281	      4.23532794	      5.29070220	    -20.10178385	      7.70207033	      3.82959871	     -2.79237365	     -7.49102249	     -1.48883776
      2.65000000	      3.61187162	      4.87167192	    -33.14884040	     -0.16345704	      1.06146657	     -0.34188195	      2.57193949	     -1.29888049	     10.25174751	    -51.42254265	     -5.28079866	     14.43924841	     14.25306754	      4.51728955	      4.72845607	    -19.82624588	      8.06967728	      3.59415766	     -3.03206811	     -7.76951738	     -1.82356613
      2.66000000	      3.84834945	      5.02464104	    -33.61072100	     -0.15553580	      1.06238706	     -0.33844886	      3.95822364	     -1.74898337	      9.79828371	    -53.26323402	     -5.01215458	     14.13666993	     13.48710649	      4.80667002	      4.28577012	    -19.56010621	      8.38487240	      3.35111807	     -3.28996823	     -8.00152802	     -2.24931087
      2.67000000	      4.03521332	      5.12029239	    -33.99693143	     -0.14771408	      1.06330399	     -0.33507819	      5.33346650	     -2.14660309	      9.23157855	    -54.90327875	     -4.41345598	     13.13886787	     12.76409483	      5.04503681	      3.93321781	    -19.33149347	      8.67816856	      2.99526794	     -3.54384352	     -8.14341830	     -2.75790574
      2.68000000	      4.25066349	      5.16205748	    -34.34444371	     -0.14001808	      1.06432020	     -0.33172566	      6.62099185	     -2.53248258	      8.62512675	    -56.34053788	     -3.51456094	     12.02362788	     11.99680606	      5.27390415	      3.66775136	    -19.10936577	      8.93487836	      2.75558786	     -3.86670317	     -8.25099344	     -3.30613415
      2.69000000	      4.43300091	      5.14685423	    -34.66098149	     -0.13246118	      1.06536976	     -0.32833739	      7.86301117	     -2.85483897	      7.99298823	    -57.56204828	     -2.44650162	     10.70727718	     11.22960014	      5.44436415	      3.45481220	    -18.88307716	      9.17562844	      2.50527150	     -4.19188857	     -8.28798327	     -3.86578122
      2.70000000	      4.57408930	      5.06349248	    -34.96926687	     -0.12506586	      1.06644705	     -0.32484892	      9.05272672	     -3.08503809	      7.36334189	    -58.56194754	     -1.30607584	      9.28935764	     10.45179688	      5.53143321	      3.26263312	    -18.63940369	      9.42794408	      2.24488108	     -4.51113131	     -8.24308485	     -4.37592958
      2.71000000	      4.69078359	      4.94363292	    -35.28763072	     -0.11788557	      1.06751948	     -0.32126388	     10.20617905	     -3.25005498	      6.76565236	    -59.36176519	     -0.18067359	      7.90788250	      9.67519394	      5.56644577	      3.04956765	    -18.38713392	      9.66013074	      1.99406746	     -4.82758015	     -8.16185170	     -4.83996844
      2.72000000	      4.77513394	      4.79009253	    -35.62867500	     -0.11091237	      1.06856596	     -0.31754255	     11.32604851	     -3.33773098	      6.21450753	    -59.95899864	      0.89175862	      6.60186810	      8.89695570	      5.54181904	      2.80021185	    -18.10933081	      9.88980499	      1.75485048	     -5.12541171	     -8.04441362	     -5.23219079
      2.73000000	      4.83709993	      4.62659258	    -36.00988837	     -0.10416574	      1.06955131	     -0.31367683	     12.42376483	     -3.36942170	      5.72622480	    -60.36483785	      1.89279923	      5.43814781	      8.12333089	      5.48030652	      2.48458401	    -17.80399773	     10.13233324	      1.53786233	     -5.39921352	     -7.92046046	     -5.54403565
      2.74000000	      4.84993215	      4.42178744	    -36.41700870	     -0.09763378	      1.07047205	     -0.30966930	     13.48902522	     -3.29798218	      5.27912910	    -60.56480018	      2.82079656	      4.41454029	      7.36453731	      5.33961697	      2.11649253	    -17.48942073	     10.38497895	      1.34534308	     -5.64721184	     -7.74019056	     -5.77879458
      2.75000000	      4.83358027	      4.21981786	    -36.84866628	     -0.09130006	      1.07129808	     -0.30554069	     14.53648140	     -3.18096244	      4.86584101	    -60.57629428	      3.67878560	      3.53005226	      6.61815954	      5.17530890	      1.72855817	    -17.14171492	     10.61447160	      1.18765561	     -5.85842846	     -7.55900578	     -5.95997668
      2.76000000	      4.79353048	      4.02444249	    -37.29913828	     -0.08515188	      1.07201119	     -0.30132634	     15.56452926	     -3.03635945	      4.46302676	    -60.40652499	      4.46639259	      2.81298895	      5.89385626	      4.99385006	      1.28812306	    -16.78305087	     10.86170993	      1.06172143	     -6.04365299	     -7.37884743	     -6.08942604
      2.77000000	      4.73570553	      3.84128725	    -37.75748348	     -0.07914700	      1.07261255	     -0.29704111	     16.56523004	     -2.88308325	      4.04725526	    -60.05884220	      5.18281158	      2.17595783	      5.18200111	      4.80972636	      0.83728242	    -16.40247251	     11.09828340	      0.96123955	     -6.20181840	     -7.20504462	     -6.20036253
      2.78000000	      4.66702154	      3.67663592	    -38.20555361	     -0.07325856	      1.07310398	     -0.29273071	     17.53252637	     -2.74372384	      3.59328024	    -59.53803213	      5.83873399	      1.59314349	      4.47867069	      4.63799623	      0.41141123	    -15.99514657	     11.30878771	      0.88733355	     -6.34341796	     -7.04200670	     -6.30730913
      2.79000000	      4.59191998	      3.52631202	    -38.65519335	     -0.06748739	      1.07346066	     -0.28838368	     18.46532491	     -2.61530994	      3.11278208	    -58.86335215	      6.43975477	      1.19072335	      3.79946888	      4.47150677	     -0.06708756	    -15.60156657	     11.55933208	      0.82946082	     -6.47326225	     -6.88647492	     -6.44023562
      2.80000000	      4.51501879	      3.38918123	    -39.08141416	     -0.06176467	      1.07370232	     -0.28402985	     19.34795785	     -2.52496282	      2.55183472	    -58.03383982	      7.00459645	      0.86999151	      3.13547489	      4.32082851	     -0.52793500	    -15.21725042	     11.81137406	      0.78130048	     -6.59455991	     -6.73839936	     -6.57976208
      2.81000000	      4.43518149	      3.26860542	    -39.48490716	     -0.05608958	      1.07381889	     -0.27966894	     20.18548455	     -2.46964717	      1.92765017	    -57.06744650	      7.55466809	      0.62794298	      2.48329859	      4.18857498	     -0.95208179	    -14.82968295	     12.05310357	      0.73967600	     -6.70600994	     -6.59642398	     -6.76599329
      2.82000000	      4.35377489	      3.15532512	    -39.86773705	     -0.05041856	      1.07382545	     -0.27528848	     20.96031332	     -2.44777051	      1.23236530	    -55.96123262	      8.09039567	      0.45388246	      1.84978892	      4.06872942	     -1.35020858	    -14.47005368	     12.29931874	      0.69292050	     -6.80730966	     -6.45011575	     -6.97229551
      2.83000000	      4.26737178	      3.05585379	    -40.23008218	     -0.04477957	      1.07370673	     -0.27088775	     21.68594626	     -2.45749766	      0.47781767	    -54.73721826	      8.61100023	      0.35281048	      1.24559138	      3.96236572	     -1.72208601	    -14.14011823	     12.54597666	      0.63469340	     -6.89450571	     -6.30607158	     -7.20405187
      2.84000000	      4.17378031	      2.95484242	    -40.56811146	     -0.03915036	      1.07347719	     -0.26647317	     22.35011784	     -2.49011954	     -0.34329734	    -53.40207861	      9.11146689	      0.29375540	      0.67053916	      3.85522510	     -2.06354951	    -13.85932334	     12.81081593	      0.55420064	     -6.97735000	     -6.14519695	     -7.44668805
      2.85000000	      4.07184797	      2.86580388	    -40.89353668	     -0.03353917	      1.07312700	     -0.26201895	     22.96534421	     -2.54831470	     -1.20981523	    -51.96739874	      9.59017209	      0.26400657	      0.13458239	      3.75691443	     -2.38068836	    -13.62741352	     13.08904724	      0.45586631	     -7.03776491	     -5.98048987	     -7.69654437
      2.86000000	      3.96562490	      2.77558627	    -41.20462411	     -0.02793651	      1.07269006	     -0.25751616	     23.51464449	     -2.62616957	     -2.12956859	    -50.43203700	     10.02476691	      0.22481050	     -0.37689416	      3.65878061	     -2.67145759	    -13.44063430	     13.36967576	      0.33940111	     -7.08903821	     -5.80318108	     -7.94502667
      2.87000000	      3.86144017	      2.67812960	    -41.50041647	     -0.02234544	      1.07219086	     -0.25296381	     23.98870642	     -2.72739740	     -3.11871257	    -48.79910681	     10.39349460	      0.14168708	     -0.87171279	      3.55964921	     -2.93519019	    -13.30167850	     13.65437893	      0.20796818	     -7.14285920	     -5.61552054	     -8.16941269
